<mxfile host="app.diagrams.net" agent="Mozilla/5.0 (Windows NT 10.0; Win64; x64) AppleWebKit/537.36 (KHTML, like Gecko) Chrome/135.0.0.0 Safari/537.36" version="26.2.13">
  <diagram name="Page-1" id="2Cn8l1esFhioQO4Fm7mU">
    <mxGraphModel dx="1283" dy="596" grid="1" gridSize="10" guides="1" tooltips="1" connect="1" arrows="1" fold="1" page="1" pageScale="1" pageWidth="850" pageHeight="1100" math="0" shadow="0">
      <root>
        <mxCell id="0" />
        <mxCell id="1" parent="0" />
        <mxCell id="D6PlRGWbOjAIQTQuNFPc-48" value="Customer" style="swimlane;fontStyle=1;align=center;verticalAlign=top;childLayout=stackLayout;horizontal=1;startSize=31.11111111111111;horizontalStack=0;resizeParent=1;resizeParentMax=0;resizeLast=0;collapsible=0;marginBottom=0;" vertex="1" parent="1">
          <mxGeometry x="20" y="352" width="187" height="287.1111111111111" as="geometry" />
        </mxCell>
        <mxCell id="D6PlRGWbOjAIQTQuNFPc-49" value="- customerId: int" style="text;strokeColor=none;fillColor=none;align=left;verticalAlign=top;spacingLeft=4;spacingRight=4;overflow=hidden;rotatable=0;points=[[0,0.5],[1,0.5]];portConstraint=eastwest;" vertex="1" parent="D6PlRGWbOjAIQTQuNFPc-48">
          <mxGeometry y="31.11111111111111" width="187" height="31" as="geometry" />
        </mxCell>
        <mxCell id="D6PlRGWbOjAIQTQuNFPc-50" value="- name: String" style="text;strokeColor=none;fillColor=none;align=left;verticalAlign=top;spacingLeft=4;spacingRight=4;overflow=hidden;rotatable=0;points=[[0,0.5],[1,0.5]];portConstraint=eastwest;" vertex="1" parent="D6PlRGWbOjAIQTQuNFPc-48">
          <mxGeometry y="62.111111111111114" width="187" height="31" as="geometry" />
        </mxCell>
        <mxCell id="D6PlRGWbOjAIQTQuNFPc-51" value="- email: String" style="text;strokeColor=none;fillColor=none;align=left;verticalAlign=top;spacingLeft=4;spacingRight=4;overflow=hidden;rotatable=0;points=[[0,0.5],[1,0.5]];portConstraint=eastwest;" vertex="1" parent="D6PlRGWbOjAIQTQuNFPc-48">
          <mxGeometry y="93.11111111111111" width="187" height="31" as="geometry" />
        </mxCell>
        <mxCell id="D6PlRGWbOjAIQTQuNFPc-52" value="- phone: String" style="text;strokeColor=none;fillColor=none;align=left;verticalAlign=top;spacingLeft=4;spacingRight=4;overflow=hidden;rotatable=0;points=[[0,0.5],[1,0.5]];portConstraint=eastwest;" vertex="1" parent="D6PlRGWbOjAIQTQuNFPc-48">
          <mxGeometry y="124.11111111111111" width="187" height="31" as="geometry" />
        </mxCell>
        <mxCell id="D6PlRGWbOjAIQTQuNFPc-53" style="line;strokeWidth=1;fillColor=none;align=left;verticalAlign=middle;spacingTop=-1;spacingLeft=3;spacingRight=3;rotatable=0;labelPosition=right;points=[];portConstraint=eastwest;strokeColor=inherit;" vertex="1" parent="D6PlRGWbOjAIQTQuNFPc-48">
          <mxGeometry y="155.11111111111111" width="187" height="8" as="geometry" />
        </mxCell>
        <mxCell id="D6PlRGWbOjAIQTQuNFPc-54" value="+ register()" style="text;strokeColor=none;fillColor=none;align=left;verticalAlign=top;spacingLeft=4;spacingRight=4;overflow=hidden;rotatable=0;points=[[0,0.5],[1,0.5]];portConstraint=eastwest;" vertex="1" parent="D6PlRGWbOjAIQTQuNFPc-48">
          <mxGeometry y="163.11111111111111" width="187" height="31" as="geometry" />
        </mxCell>
        <mxCell id="D6PlRGWbOjAIQTQuNFPc-55" value="+ login()" style="text;strokeColor=none;fillColor=none;align=left;verticalAlign=top;spacingLeft=4;spacingRight=4;overflow=hidden;rotatable=0;points=[[0,0.5],[1,0.5]];portConstraint=eastwest;" vertex="1" parent="D6PlRGWbOjAIQTQuNFPc-48">
          <mxGeometry y="194.11111111111111" width="187" height="31" as="geometry" />
        </mxCell>
        <mxCell id="D6PlRGWbOjAIQTQuNFPc-56" value="+ bookTable()" style="text;strokeColor=none;fillColor=none;align=left;verticalAlign=top;spacingLeft=4;spacingRight=4;overflow=hidden;rotatable=0;points=[[0,0.5],[1,0.5]];portConstraint=eastwest;" vertex="1" parent="D6PlRGWbOjAIQTQuNFPc-48">
          <mxGeometry y="225.11111111111111" width="187" height="31" as="geometry" />
        </mxCell>
        <mxCell id="D6PlRGWbOjAIQTQuNFPc-57" value="+ cancelBooking()" style="text;strokeColor=none;fillColor=none;align=left;verticalAlign=top;spacingLeft=4;spacingRight=4;overflow=hidden;rotatable=0;points=[[0,0.5],[1,0.5]];portConstraint=eastwest;" vertex="1" parent="D6PlRGWbOjAIQTQuNFPc-48">
          <mxGeometry y="256.1111111111111" width="187" height="31" as="geometry" />
        </mxCell>
        <mxCell id="D6PlRGWbOjAIQTQuNFPc-58" value="Admin" style="swimlane;fontStyle=1;align=center;verticalAlign=top;childLayout=stackLayout;horizontal=1;startSize=33.142857142857146;horizontalStack=0;resizeParent=1;resizeParentMax=0;resizeLast=0;collapsible=0;marginBottom=0;" vertex="1" parent="1">
          <mxGeometry x="238" y="40" width="218" height="239.14285714285714" as="geometry" />
        </mxCell>
        <mxCell id="D6PlRGWbOjAIQTQuNFPc-59" value="- adminId: int" style="text;strokeColor=none;fillColor=none;align=left;verticalAlign=top;spacingLeft=4;spacingRight=4;overflow=hidden;rotatable=0;points=[[0,0.5],[1,0.5]];portConstraint=eastwest;" vertex="1" parent="D6PlRGWbOjAIQTQuNFPc-58">
          <mxGeometry y="33.142857142857146" width="218" height="33" as="geometry" />
        </mxCell>
        <mxCell id="D6PlRGWbOjAIQTQuNFPc-60" value="- username: String" style="text;strokeColor=none;fillColor=none;align=left;verticalAlign=top;spacingLeft=4;spacingRight=4;overflow=hidden;rotatable=0;points=[[0,0.5],[1,0.5]];portConstraint=eastwest;" vertex="1" parent="D6PlRGWbOjAIQTQuNFPc-58">
          <mxGeometry y="66.14285714285714" width="218" height="33" as="geometry" />
        </mxCell>
        <mxCell id="D6PlRGWbOjAIQTQuNFPc-61" value="- password: String" style="text;strokeColor=none;fillColor=none;align=left;verticalAlign=top;spacingLeft=4;spacingRight=4;overflow=hidden;rotatable=0;points=[[0,0.5],[1,0.5]];portConstraint=eastwest;" vertex="1" parent="D6PlRGWbOjAIQTQuNFPc-58">
          <mxGeometry y="99.14285714285714" width="218" height="33" as="geometry" />
        </mxCell>
        <mxCell id="D6PlRGWbOjAIQTQuNFPc-62" style="line;strokeWidth=1;fillColor=none;align=left;verticalAlign=middle;spacingTop=-1;spacingLeft=3;spacingRight=3;rotatable=0;labelPosition=right;points=[];portConstraint=eastwest;strokeColor=inherit;" vertex="1" parent="D6PlRGWbOjAIQTQuNFPc-58">
          <mxGeometry y="132.14285714285714" width="218" height="8" as="geometry" />
        </mxCell>
        <mxCell id="D6PlRGWbOjAIQTQuNFPc-63" value="+ manageUsers()" style="text;strokeColor=none;fillColor=none;align=left;verticalAlign=top;spacingLeft=4;spacingRight=4;overflow=hidden;rotatable=0;points=[[0,0.5],[1,0.5]];portConstraint=eastwest;" vertex="1" parent="D6PlRGWbOjAIQTQuNFPc-58">
          <mxGeometry y="140.14285714285714" width="218" height="33" as="geometry" />
        </mxCell>
        <mxCell id="D6PlRGWbOjAIQTQuNFPc-64" value="+ manageMenu()" style="text;strokeColor=none;fillColor=none;align=left;verticalAlign=top;spacingLeft=4;spacingRight=4;overflow=hidden;rotatable=0;points=[[0,0.5],[1,0.5]];portConstraint=eastwest;" vertex="1" parent="D6PlRGWbOjAIQTQuNFPc-58">
          <mxGeometry y="173.14285714285714" width="218" height="33" as="geometry" />
        </mxCell>
        <mxCell id="D6PlRGWbOjAIQTQuNFPc-65" value="+ manageReservations()" style="text;strokeColor=none;fillColor=none;align=left;verticalAlign=top;spacingLeft=4;spacingRight=4;overflow=hidden;rotatable=0;points=[[0,0.5],[1,0.5]];portConstraint=eastwest;" vertex="1" parent="D6PlRGWbOjAIQTQuNFPc-58">
          <mxGeometry y="206.14285714285714" width="218" height="33" as="geometry" />
        </mxCell>
        <mxCell id="D6PlRGWbOjAIQTQuNFPc-66" value="Table" style="swimlane;fontStyle=1;align=center;verticalAlign=top;childLayout=stackLayout;horizontal=1;startSize=36.8;horizontalStack=0;resizeParent=1;resizeParentMax=0;resizeLast=0;collapsible=0;marginBottom=0;" vertex="1" parent="1">
          <mxGeometry x="184" y="1025" width="190" height="192.8" as="geometry" />
        </mxCell>
        <mxCell id="D6PlRGWbOjAIQTQuNFPc-67" value="- tableId: int" style="text;strokeColor=none;fillColor=none;align=left;verticalAlign=top;spacingLeft=4;spacingRight=4;overflow=hidden;rotatable=0;points=[[0,0.5],[1,0.5]];portConstraint=eastwest;" vertex="1" parent="D6PlRGWbOjAIQTQuNFPc-66">
          <mxGeometry y="36.8" width="190" height="37" as="geometry" />
        </mxCell>
        <mxCell id="D6PlRGWbOjAIQTQuNFPc-68" value="- capacity: int" style="text;strokeColor=none;fillColor=none;align=left;verticalAlign=top;spacingLeft=4;spacingRight=4;overflow=hidden;rotatable=0;points=[[0,0.5],[1,0.5]];portConstraint=eastwest;" vertex="1" parent="D6PlRGWbOjAIQTQuNFPc-66">
          <mxGeometry y="73.8" width="190" height="37" as="geometry" />
        </mxCell>
        <mxCell id="D6PlRGWbOjAIQTQuNFPc-69" value="- status: String" style="text;strokeColor=none;fillColor=none;align=left;verticalAlign=top;spacingLeft=4;spacingRight=4;overflow=hidden;rotatable=0;points=[[0,0.5],[1,0.5]];portConstraint=eastwest;" vertex="1" parent="D6PlRGWbOjAIQTQuNFPc-66">
          <mxGeometry y="110.8" width="190" height="37" as="geometry" />
        </mxCell>
        <mxCell id="D6PlRGWbOjAIQTQuNFPc-70" style="line;strokeWidth=1;fillColor=none;align=left;verticalAlign=middle;spacingTop=-1;spacingLeft=3;spacingRight=3;rotatable=0;labelPosition=right;points=[];portConstraint=eastwest;strokeColor=inherit;" vertex="1" parent="D6PlRGWbOjAIQTQuNFPc-66">
          <mxGeometry y="147.8" width="190" height="8" as="geometry" />
        </mxCell>
        <mxCell id="D6PlRGWbOjAIQTQuNFPc-71" value="+ checkAvailability()" style="text;strokeColor=none;fillColor=none;align=left;verticalAlign=top;spacingLeft=4;spacingRight=4;overflow=hidden;rotatable=0;points=[[0,0.5],[1,0.5]];portConstraint=eastwest;" vertex="1" parent="D6PlRGWbOjAIQTQuNFPc-66">
          <mxGeometry y="155.8" width="190" height="37" as="geometry" />
        </mxCell>
        <mxCell id="D6PlRGWbOjAIQTQuNFPc-72" value="Reservation" style="swimlane;fontStyle=1;align=center;verticalAlign=top;childLayout=stackLayout;horizontal=1;startSize=33.142857142857146;horizontalStack=0;resizeParent=1;resizeParentMax=0;resizeLast=0;collapsible=0;marginBottom=0;" vertex="1" parent="1">
          <mxGeometry x="177" y="713" width="203" height="239.14285714285714" as="geometry" />
        </mxCell>
        <mxCell id="D6PlRGWbOjAIQTQuNFPc-73" value="- reservationId: int" style="text;strokeColor=none;fillColor=none;align=left;verticalAlign=top;spacingLeft=4;spacingRight=4;overflow=hidden;rotatable=0;points=[[0,0.5],[1,0.5]];portConstraint=eastwest;" vertex="1" parent="D6PlRGWbOjAIQTQuNFPc-72">
          <mxGeometry y="33.142857142857146" width="203" height="33" as="geometry" />
        </mxCell>
        <mxCell id="D6PlRGWbOjAIQTQuNFPc-74" value="- date: Date" style="text;strokeColor=none;fillColor=none;align=left;verticalAlign=top;spacingLeft=4;spacingRight=4;overflow=hidden;rotatable=0;points=[[0,0.5],[1,0.5]];portConstraint=eastwest;" vertex="1" parent="D6PlRGWbOjAIQTQuNFPc-72">
          <mxGeometry y="66.14285714285714" width="203" height="33" as="geometry" />
        </mxCell>
        <mxCell id="D6PlRGWbOjAIQTQuNFPc-75" value="- time: String" style="text;strokeColor=none;fillColor=none;align=left;verticalAlign=top;spacingLeft=4;spacingRight=4;overflow=hidden;rotatable=0;points=[[0,0.5],[1,0.5]];portConstraint=eastwest;" vertex="1" parent="D6PlRGWbOjAIQTQuNFPc-72">
          <mxGeometry y="99.14285714285714" width="203" height="33" as="geometry" />
        </mxCell>
        <mxCell id="D6PlRGWbOjAIQTQuNFPc-76" value="- status: String" style="text;strokeColor=none;fillColor=none;align=left;verticalAlign=top;spacingLeft=4;spacingRight=4;overflow=hidden;rotatable=0;points=[[0,0.5],[1,0.5]];portConstraint=eastwest;" vertex="1" parent="D6PlRGWbOjAIQTQuNFPc-72">
          <mxGeometry y="132.14285714285714" width="203" height="33" as="geometry" />
        </mxCell>
        <mxCell id="D6PlRGWbOjAIQTQuNFPc-77" style="line;strokeWidth=1;fillColor=none;align=left;verticalAlign=middle;spacingTop=-1;spacingLeft=3;spacingRight=3;rotatable=0;labelPosition=right;points=[];portConstraint=eastwest;strokeColor=inherit;" vertex="1" parent="D6PlRGWbOjAIQTQuNFPc-72">
          <mxGeometry y="165.14285714285714" width="203" height="8" as="geometry" />
        </mxCell>
        <mxCell id="D6PlRGWbOjAIQTQuNFPc-78" value="+ confirm()" style="text;strokeColor=none;fillColor=none;align=left;verticalAlign=top;spacingLeft=4;spacingRight=4;overflow=hidden;rotatable=0;points=[[0,0.5],[1,0.5]];portConstraint=eastwest;" vertex="1" parent="D6PlRGWbOjAIQTQuNFPc-72">
          <mxGeometry y="173.14285714285714" width="203" height="33" as="geometry" />
        </mxCell>
        <mxCell id="D6PlRGWbOjAIQTQuNFPc-79" value="+ cancel()" style="text;strokeColor=none;fillColor=none;align=left;verticalAlign=top;spacingLeft=4;spacingRight=4;overflow=hidden;rotatable=0;points=[[0,0.5],[1,0.5]];portConstraint=eastwest;" vertex="1" parent="D6PlRGWbOjAIQTQuNFPc-72">
          <mxGeometry y="206.14285714285714" width="203" height="33" as="geometry" />
        </mxCell>
        <mxCell id="D6PlRGWbOjAIQTQuNFPc-80" value="Menu" style="swimlane;fontStyle=1;align=center;verticalAlign=top;childLayout=stackLayout;horizontal=1;startSize=36.8;horizontalStack=0;resizeParent=1;resizeParentMax=0;resizeLast=0;collapsible=0;marginBottom=0;" vertex="1" parent="1">
          <mxGeometry x="257" y="400" width="181" height="192.8" as="geometry" />
        </mxCell>
        <mxCell id="D6PlRGWbOjAIQTQuNFPc-81" value="- menuId: int" style="text;strokeColor=none;fillColor=none;align=left;verticalAlign=top;spacingLeft=4;spacingRight=4;overflow=hidden;rotatable=0;points=[[0,0.5],[1,0.5]];portConstraint=eastwest;" vertex="1" parent="D6PlRGWbOjAIQTQuNFPc-80">
          <mxGeometry y="36.8" width="181" height="37" as="geometry" />
        </mxCell>
        <mxCell id="D6PlRGWbOjAIQTQuNFPc-82" value="- itemName: String" style="text;strokeColor=none;fillColor=none;align=left;verticalAlign=top;spacingLeft=4;spacingRight=4;overflow=hidden;rotatable=0;points=[[0,0.5],[1,0.5]];portConstraint=eastwest;" vertex="1" parent="D6PlRGWbOjAIQTQuNFPc-80">
          <mxGeometry y="73.8" width="181" height="37" as="geometry" />
        </mxCell>
        <mxCell id="D6PlRGWbOjAIQTQuNFPc-83" value="- price: double" style="text;strokeColor=none;fillColor=none;align=left;verticalAlign=top;spacingLeft=4;spacingRight=4;overflow=hidden;rotatable=0;points=[[0,0.5],[1,0.5]];portConstraint=eastwest;" vertex="1" parent="D6PlRGWbOjAIQTQuNFPc-80">
          <mxGeometry y="110.8" width="181" height="37" as="geometry" />
        </mxCell>
        <mxCell id="D6PlRGWbOjAIQTQuNFPc-84" style="line;strokeWidth=1;fillColor=none;align=left;verticalAlign=middle;spacingTop=-1;spacingLeft=3;spacingRight=3;rotatable=0;labelPosition=right;points=[];portConstraint=eastwest;strokeColor=inherit;" vertex="1" parent="D6PlRGWbOjAIQTQuNFPc-80">
          <mxGeometry y="147.8" width="181" height="8" as="geometry" />
        </mxCell>
        <mxCell id="D6PlRGWbOjAIQTQuNFPc-85" value="+ updateMenu()" style="text;strokeColor=none;fillColor=none;align=left;verticalAlign=top;spacingLeft=4;spacingRight=4;overflow=hidden;rotatable=0;points=[[0,0.5],[1,0.5]];portConstraint=eastwest;" vertex="1" parent="D6PlRGWbOjAIQTQuNFPc-80">
          <mxGeometry y="155.8" width="181" height="37" as="geometry" />
        </mxCell>
        <mxCell id="D6PlRGWbOjAIQTQuNFPc-86" value="makes" style="curved=1;startArrow=none;endArrow=open;endSize=12;exitX=0.35;exitY=1;entryX=0;entryY=0.17;rounded=0;" edge="1" parent="1" source="D6PlRGWbOjAIQTQuNFPc-48" target="D6PlRGWbOjAIQTQuNFPc-72">
          <mxGeometry relative="1" as="geometry">
            <Array as="points">
              <mxPoint x="79" y="677" />
            </Array>
          </mxGeometry>
        </mxCell>
        <mxCell id="D6PlRGWbOjAIQTQuNFPc-87" value="1" style="edgeLabel;resizable=0;labelBackgroundColor=none;fontSize=12;align=right;verticalAlign=top;" vertex="1" parent="D6PlRGWbOjAIQTQuNFPc-86">
          <mxGeometry x="-1" relative="1" as="geometry" />
        </mxCell>
        <mxCell id="D6PlRGWbOjAIQTQuNFPc-88" value="0..*" style="edgeLabel;resizable=0;labelBackgroundColor=none;fontSize=12;align=left;verticalAlign=bottom;" vertex="1" parent="D6PlRGWbOjAIQTQuNFPc-86">
          <mxGeometry x="1" relative="1" as="geometry" />
        </mxCell>
        <mxCell id="D6PlRGWbOjAIQTQuNFPc-89" value="reserves" style="curved=1;startArrow=none;endArrow=open;endSize=12;exitX=0.5;exitY=1;entryX=0.5;entryY=0;rounded=0;" edge="1" parent="1" source="D6PlRGWbOjAIQTQuNFPc-72" target="D6PlRGWbOjAIQTQuNFPc-66">
          <mxGeometry relative="1" as="geometry">
            <Array as="points" />
          </mxGeometry>
        </mxCell>
        <mxCell id="D6PlRGWbOjAIQTQuNFPc-90" value="1" style="edgeLabel;resizable=0;labelBackgroundColor=none;fontSize=12;align=right;verticalAlign=top;" vertex="1" parent="D6PlRGWbOjAIQTQuNFPc-89">
          <mxGeometry x="-1" relative="1" as="geometry" />
        </mxCell>
        <mxCell id="D6PlRGWbOjAIQTQuNFPc-91" value="1" style="edgeLabel;resizable=0;labelBackgroundColor=none;fontSize=12;align=left;verticalAlign=bottom;" vertex="1" parent="D6PlRGWbOjAIQTQuNFPc-89">
          <mxGeometry x="1" relative="1" as="geometry" />
        </mxCell>
        <mxCell id="D6PlRGWbOjAIQTQuNFPc-92" value="makes" style="curved=1;startArrow=diamondThin;startSize=14;startFill=0;endArrow=none;exitX=1;exitY=0.85;entryX=0.5;entryY=0;rounded=0;" edge="1" parent="1" source="D6PlRGWbOjAIQTQuNFPc-48" target="D6PlRGWbOjAIQTQuNFPc-72">
          <mxGeometry relative="1" as="geometry">
            <Array as="points">
              <mxPoint x="279" y="677" />
            </Array>
          </mxGeometry>
        </mxCell>
        <mxCell id="D6PlRGWbOjAIQTQuNFPc-93" value="manages" style="curved=1;startArrow=diamondThin;startSize=14;startFill=1;endArrow=none;exitX=0.5;exitY=1;entryX=0.5;entryY=0;rounded=0;" edge="1" parent="1" source="D6PlRGWbOjAIQTQuNFPc-58" target="D6PlRGWbOjAIQTQuNFPc-80">
          <mxGeometry relative="1" as="geometry">
            <Array as="points" />
          </mxGeometry>
        </mxCell>
        <mxCell id="D6PlRGWbOjAIQTQuNFPc-94" value="extends" style="curved=1;startArrow=block;startSize=16;startFill=0;endArrow=none;exitX=0;exitY=0.8;entryX=0.5;entryY=0;rounded=0;" edge="1" parent="1" source="D6PlRGWbOjAIQTQuNFPc-58" target="D6PlRGWbOjAIQTQuNFPc-48">
          <mxGeometry relative="1" as="geometry">
            <Array as="points">
              <mxPoint x="113" y="316" />
            </Array>
          </mxGeometry>
        </mxCell>
        <mxCell id="D6PlRGWbOjAIQTQuNFPc-95" value="uses" style="curved=1;dashed=1;startArrow=none;endArrow=open;endSize=12;exitX=1;exitY=1;entryX=1;entryY=0.18;rounded=0;" edge="1" parent="1" source="D6PlRGWbOjAIQTQuNFPc-58" target="D6PlRGWbOjAIQTQuNFPc-72">
          <mxGeometry relative="1" as="geometry">
            <Array as="points">
              <mxPoint x="489" y="316" />
              <mxPoint x="489" y="677" />
            </Array>
          </mxGeometry>
        </mxCell>
      </root>
    </mxGraphModel>
  </diagram>
</mxfile>
